<?xml version="1.0" encoding="utf-8"?>
<!-- Generator: Adobe Illustrator 16.0.0, SVG Export Plug-In . SVG Version: 6.00 Build 0)  -->
<!DOCTYPE svg PUBLIC "-//W3C//DTD SVG 1.1//EN" "http://www.w3.org/Graphics/SVG/1.1/DTD/svg11.dtd">
<svg version="1.1" id="Layer_2" xmlns="http://www.w3.org/2000/svg" xmlns:xlink="http://www.w3.org/1999/xlink" x="0px" y="0px"
	 width="386.005px" height="385.999px" viewBox="0 0 386.005 385.999" enable-background="new 0 0 386.005 385.999"
	 xml:space="preserve">
<g>
	<path fill="#E6E6E6" d="M193,0C86.408,0,0,86.409,0,193c0,106.59,86.408,193,193,193c106.597,0,193.006-86.409,193.006-193
		C386.005,86.409,299.596,0,193,0z M193,378.999c-102.725,0-186-83.275-186-186C7,90.274,90.274,7,193,7
		c102.73,0,186.006,83.274,186.006,186C379.005,295.724,295.73,378.999,193,378.999z"/>
	<path fill="#D1D1D1" d="M193,7C90.274,7,7,90.274,7,193c0,102.724,83.274,186,186,186c102.73,0,186.006-83.275,186.006-186
		C379.005,90.274,295.73,7,193,7z M193,366.999c-96.098,0-174-77.902-174-174C19,96.902,96.902,19,193,19
		c96.103,0,174.006,77.902,174.006,174C367.005,289.097,289.102,366.999,193,366.999z"/>
	<path fill="#BDBDBD" d="M193,19C96.902,19,19,96.902,19,193c0,96.097,77.902,174,174,174c96.103,0,174.006-77.902,174.006-174
		C367.005,96.902,289.102,19,193,19z M193,358.999c-91.68,0-166-74.321-166-166c0-91.679,74.32-166,166-166
		c91.684,0,166.005,74.321,166.005,166C359.005,284.678,284.684,358.999,193,358.999z"/>
</g>
<g>
	<path fill="#FFFFFF" d="M193,27C101.32,27,27,101.32,27,193c0,91.678,74.32,166,166,166c91.684,0,166.005-74.321,166.005-166
		C359.005,101.32,284.684,27,193,27z M193,317.999c-69.036,0-125-55.965-125-125c0-69.036,55.964-125,125-125
		c69.04,0,125.004,55.964,125.004,125C318.004,262.034,262.04,317.999,193,317.999z"/>
</g>
<g opacity="0.8">
	<path d="M193,68c-69.036,0-125,55.964-125,125c0,69.035,55.964,125,125,125c69.04,0,125.004-55.965,125.004-125
		C318.004,123.964,262.04,68,193,68z M193,316.854c-68.404,0-123.856-55.452-123.856-123.855
		c0-68.404,55.452-123.856,123.856-123.856c68.408,0,123.86,55.452,123.86,123.856C316.86,261.402,261.408,316.854,193,316.854z"/>
	<path fill="#171717" d="M193,69.144c-68.404,0-123.856,55.452-123.856,123.856c0,68.403,55.452,123.855,123.856,123.855
		c68.408,0,123.86-55.452,123.86-123.855C316.86,124.596,261.408,69.144,193,69.144z M193,310.854
		c-65.09,0-117.856-52.766-117.856-117.855c0-65.09,52.766-117.856,117.856-117.856c65.094,0,117.86,52.766,117.86,117.856
		C310.86,258.089,258.094,310.854,193,310.854z"/>
	<path fill="#2B2B2B" d="M193,75.144c-65.09,0-117.856,52.766-117.856,117.856c0,65.089,52.766,117.855,117.856,117.855
		c65.094,0,117.86-52.766,117.86-117.855C310.86,127.909,258.094,75.144,193,75.144z M193,303.438
		c-60.994,0-110.439-49.445-110.439-110.439c0-60.995,49.446-110.44,110.439-110.44c60.999,0,110.444,49.445,110.444,110.44
		C303.444,253.993,253.999,303.438,193,303.438z"/>
	<path fill="#424242" d="M193,82.56c-60.994,0-110.439,49.445-110.439,110.44c0,60.994,49.446,110.439,110.439,110.439
		c60.999,0,110.444-49.445,110.444-110.439C303.444,132.005,253.999,82.56,193,82.56z M193,285.438
		c-51.053,0-92.44-41.387-92.44-92.439c0-51.054,41.387-92.44,92.44-92.44c51.057,0,92.443,41.387,92.443,92.44
		C285.444,244.052,244.057,285.438,193,285.438z"/>
	<path fill="#525252" d="M193,100.559c-51.053,0-92.44,41.387-92.44,92.44c0,51.052,41.387,92.439,92.44,92.439
		c51.057,0,92.443-41.387,92.443-92.439C285.444,141.946,244.057,100.559,193,100.559z M193.001,255.805
		c-34.687,0-62.806-28.119-62.806-62.806s28.119-62.806,62.806-62.806c34.689,0,62.808,28.119,62.808,62.806
		S227.69,255.805,193.001,255.805z"/>
</g>
</svg>
