<?xml version="1.0" encoding="utf-8"?>
<!-- Generator: Adobe Illustrator 16.0.0, SVG Export Plug-In . SVG Version: 6.00 Build 0)  -->
<!DOCTYPE svg PUBLIC "-//W3C//DTD SVG 1.1//EN" "http://www.w3.org/Graphics/SVG/1.1/DTD/svg11.dtd">
<svg version="1.1" id="Layer_1" xmlns="http://www.w3.org/2000/svg" xmlns:xlink="http://www.w3.org/1999/xlink" x="0px" y="0px"
	 width="200px" height="200px" viewBox="0 0 200 200" enable-background="new 0 0 200 200" xml:space="preserve">
<rect y="0" fill="#FBFDF0" width="200" height="200"/>
<g>
	<g>
		<path fill="#B8B8B8" d="M66.603,102.396c-1.426,0-2.399-0.604-3.198-1.513v6.912l-1.619-1.468V90.815h1.621v1.383
			c0.799-0.865,1.879-1.621,3.412-1.621c2.27,0,4.062,1.729,4.062,5.726C70.881,100.321,68.979,102.396,66.603,102.396z
			 M66.408,91.982c-1.211,0-2.205,0.648-3.004,1.642v5.66c0.627,0.95,1.729,1.707,3.068,1.707c1.88,0,2.809-1.621,2.809-4.667
			C69.281,93.472,68.201,91.982,66.408,91.982z"/>
		<path fill="#B8B8B8" d="M80.904,102.158v-1.383c-0.648,0.951-1.707,1.621-3.134,1.621c-2.397,0-3.976-1.405-3.976-4.668v-6.914
			h1.619v6.634c0,2.44,0.865,3.543,2.681,3.543c1.577,0,2.81-1.059,2.81-3.543v-6.634h1.619v11.344H80.904L80.904,102.158z"/>
		<path fill="#B8B8B8" d="M96.111,102.396c-1.426,0-2.396-0.604-3.197-1.513v1.274h-1.619V87.315l1.619,1.467v3.416
			c0.801-0.864,1.881-1.621,3.414-1.621c2.269,0,4.062,1.729,4.062,5.726C100.391,100.321,98.488,102.396,96.111,102.396z
			 M95.918,91.982c-1.211,0-2.203,0.648-3.004,1.642v5.66c0.627,0.95,1.729,1.707,3.068,1.707c1.881,0,2.809-1.621,2.809-4.667
			C98.791,93.472,97.711,91.982,95.918,91.982z"/>
		<path fill="#B8B8B8" d="M108.9,102.158V90.814l1.62,0.95v10.394H108.9L108.9,102.158z"/>
		<path fill="#B8B8B8" d="M122.533,102.396c-1.557,0-2.918-0.583-3.998-1.447l0.951-1.188c0.907,0.8,1.967,1.253,3.09,1.253
			c1.556,0,2.289-0.647,2.289-1.75c0-0.93-0.67-1.448-2.68-2.312c-2.268-0.973-3.219-1.664-3.219-3.479
			c0-1.729,1.49-2.896,3.544-2.896c1.555,0,2.765,0.498,3.629,1.21l-0.907,1.188c-0.886-0.691-1.619-1.015-2.83-1.015
			c-1.188,0-1.88,0.583-1.88,1.404c0,0.95,0.584,1.339,2.507,2.204c2.139,0.973,3.393,1.599,3.393,3.629
			C126.422,101.424,124.498,102.396,122.533,102.396z"/>
		<g>
			<path fill="#B8B8B8" d="M134.233,90.577c-1.427,0-2.35,0.67-3.142,1.621v-3.417l-1.582-1.467v15.003h1.582v-6.792
				c0-2.484,1.26-3.543,2.836-3.543c1.814,0,2.705,1.102,2.705,3.543v6.792h-0.028l1.611,1.312v-8.385
				C138.217,91.982,136.632,90.577,134.233,90.577z"/>
		</g>
	</g>
	<g>
		<polygon fill="#D7E4A1" points="113.681,102.647 115.315,103.582 115.309,101.692 115.309,101.691 113.681,100.758 
			113.681,100.758 		"/>
	</g>
	<g>
		<polygon fill="#D7E4A1" points="86.174,102.647 87.809,103.582 87.802,101.692 87.802,101.691 86.174,100.758 86.174,100.758 		
			"/>
	</g>
	<g>
		<polygon fill="#D7E4A1" points="108.906,89.192 110.539,90.125 110.533,88.237 110.533,88.236 108.906,87.302 108.906,87.302 		
			"/>
	</g>
	<g>
		<polygon fill="#B8B8B8" points="103.391,87.886 103.391,102.317 103.484,102.317 104.974,102.317 104.974,88.791 103.463,87.927 
					"/>
	</g>
</g>
</svg>
