<?xml version="1.0" encoding="utf-8"?>
<!-- Generator: Adobe Illustrator 16.0.0, SVG Export Plug-In . SVG Version: 6.00 Build 0)  -->
<!DOCTYPE svg PUBLIC "-//W3C//DTD SVG 1.1//EN" "http://www.w3.org/Graphics/SVG/1.1/DTD/svg11.dtd">
<svg version="1.1" id="Layer_1" xmlns="http://www.w3.org/2000/svg" xmlns:xlink="http://www.w3.org/1999/xlink" x="0px" y="0px"
	 width="14px" height="14px" viewBox="0 0 14 14" enable-background="new 0 0 14 14" xml:space="preserve">
<path fill="#C4C4C4" d="M12.396,11.32L9.223,8.147c0.478-0.69,0.76-1.525,0.76-2.428c0-2.366-1.918-4.283-4.286-4.283
	c-2.366,0-4.283,1.917-4.283,4.283c0,2.365,1.917,4.283,4.283,4.283c0.914,0,1.758-0.29,2.452-0.777l3.171,3.171
	c0.263,0.263,0.717,0.234,1.014-0.062S12.658,11.583,12.396,11.32z M2.737,5.72c0-1.634,1.325-2.959,2.959-2.959
	c1.637,0,2.962,1.325,2.962,2.959c0,1.634-1.325,2.959-2.962,2.959C4.062,8.679,2.737,7.354,2.737,5.72z"/>
</svg>
